 http://img829.imageshack.us/img829/4044/nieznajomy2011.jpg

Country.......: Poland
Genre.........: Thriller, Drama
Date release..: 2011 [World]
Director......: Damian Galka
Writers.......: Damian Galka i Krzysztof Micko
Duration......: 42 min.
More..........: http://www.kinomaniak.tv/film/Nieznajomy/39692
Trailer.......:

Pilot :
A group of friends going to have some fun on the weekend to the hotel 5gwiazdkowego. Alcohol, girls, drugs ... but ... the way one group of people start to feel ill and vomit. They decide to stay at the nearest motel. When entering the village closest to ... are not aware of what will meet them here. Better place for the first home of the exit would ask for a nearby motel. At home, they find no one. Conclude that long one does not live here, a house is covered with dust and dirt. They stop at that house on the night. It seems to them that they are alone ... They have a right ... seems to them ... They are not aware that they will fight for the life of psychopathic owns the property.

Cats :
Sebastian Zalewski..........
Daniel Lewandowski..........
Grzegorz Andruszkiewicz.....

Data Technical :
!!! SAMPLE !!!
Audio.....: Polish
Subtitles.: None
Format                           : AVI
Format/Info                      : Audio Video Interleave
File size                        : 698 MiB
Duration                         : 41mn 52s
Overall bit rate                 : 2 330 Kbps
Writing application              : VirtualDubMod 1.5.10.2 (build 2540/release)
Writing library                  : VirtualDubMod build 2540/release
Video
ID                               : 0
Format                           : MPEG-4 Visual
Format profile                   : Advanced Simple@L5
Format settings, BVOP            : Yes
Format settings, QPel            : No
Format settings, GMC             : No warppoints
Format settings, Matrix          : Custom
Codec ID                         : XVID
Codec ID/Hint                    : XviD
Duration                         : 41mn 52s
Bit rate                         : 1 873 Kbps
Width                            : 640 pixels
Height                           : 352 pixels
Display aspect ratio             : 16:9
Frame rate                       : 25.000 fps
Color space                      : YUV
Chroma subsampling               : 4:2:0
Bit depth                        : 8 bits
Scan type                        : Progressive
Bits/(Pixel*Frame)               : 0.333
Stream size                      : 561 MiB (80%)
Writing library                  : XviD 62
Audio
ID                               : 1
Format                           : AC-3
Format/Info                      : Audio Coding 3
Mode extension                   : CM (complete main)
Codec ID                         : 2000
Duration                         : 41mn 52s
Bit rate mode                    : Constant
Bit rate                         : 448 Kbps
Channel(s)                       : 6 channels
Channel positions                : Front: L C R, Side: L R, LFE
Sampling rate                    : 48.0 KHz
Bit depth                        : 16 bits
Video delay                      : 24ms
Stream size                      : 134 MiB (19%)
Alignment                        : Split accross interleaves
Interleave, duration             : 40 ms (1.00 video frame)
Interleave, preload duration     : 500 ms

Screen : 
http://img684.imageshack.us/img684/2795/nieznajomy2011s1.jpg 
http://img193.imageshack.us/img193/412/nieznajomy2011s2.jpg 
http://img225.imageshack.us/img225/6143/nieznajomy2011s3.jpg 
http://img199.imageshack.us/img199/9769/nieznajomy2011s4.jpg 
http://img571.imageshack.us/img571/6355/nieznajomy2011s5.jpg